<?xml version="1.0" encoding="utf-8"?>
<!-- Generator: Adobe Illustrator 24.0.1, SVG Export Plug-In . SVG Version: 6.00 Build 0)  -->
<svg version="1.1" id="Light_Theme_Icons" xmlns="http://www.w3.org/2000/svg" xmlns:xlink="http://www.w3.org/1999/xlink" x="0px"
	 y="0px" viewBox="0 0 20.3 13.2" style="enable-background:new 0 0 20.3 13.2;" xml:space="preserve">
<style type="text/css">
	.st0{fill:#5B5B5B;}
	.st1{display:none;fill:#5B5B5B;}
	.st2{fill:#4F4F4F;}
	.st3{fill:none;stroke:#4F4F4F;stroke-miterlimit:10;}
	.st4{fill:none;}
	.st5{fill:#2D2D2D;}
	.st6{fill:#EDEDED;}
	.st7{fill:#C4C4C4;}
</style>
<g id="Approve">
	<path class="st2" d="M20.05,0.41c-0.45-0.55-1.34-0.54-2.03,0.02L6.08,10.28L2.39,5.8C1.83,5.12,0.96,4.94,0.41,5.4
		c-0.55,0.45-0.54,1.34,0.02,2.03l4.22,5.12c0.36,0.43,0.84,0.66,1.29,0.66c0.03,0,0.06-0.01,0.1-0.01
		c0.08-0.01,0.16-0.02,0.23-0.05c0.27-0.06,0.55-0.16,0.8-0.37L19.64,2.39C20.33,1.83,20.51,0.96,20.05,0.41z"/>
</g>
</svg>
