<?xml version="1.0" encoding="utf-8"?>
<!-- Generator: Adobe Illustrator 24.0.1, SVG Export Plug-In . SVG Version: 6.00 Build 0)  -->
<svg version="1.1" id="Light_Theme_Icons" xmlns="http://www.w3.org/2000/svg" xmlns:xlink="http://www.w3.org/1999/xlink" x="0px"
	 y="0px" viewBox="0 0 28.85 12.72" style="enable-background:new 0 0 28.85 12.72;" xml:space="preserve">
<style type="text/css">
	.st0{fill:#5B5B5B;}
	.st1{display:none;fill:#5B5B5B;}
	.st2{fill:#4F4F4F;}
	.st3{fill:none;stroke:#4F4F4F;stroke-miterlimit:10;}
	.st4{fill:none;}
	.st5{fill:#2D2D2D;}
	.st6{fill:#EDEDED;}
	.st7{fill:#C4C4C4;}
</style>
<g id="View_Settings_Up">
	<g>
		<path class="st2" d="M28.43,6.45C21.53-1.26,10.05-2.12,2.26,4.19c-3.78,3.11-2.18,3.39,0.22,5.32c0.9,0.73,4.88,2.86,4.11,2.16
			c-0.44-0.4-4.34-4.54-4.34-4.54s4.16-3,6.98-3.55c2.47-0.48,7.63-0.45,10.13,0.02C21.4,4,24.63,6.04,26.15,7.5
			c-0.07,0.43-4.32,4.09-4.19,4.3c0.1,0.18,1.79-0.73,3.98-1.82C26.6,9.66,30.03,7.97,28.43,6.45z"/>
		<path class="st2" d="M14.43,1.71c-3.04,0-5.51,2.47-5.51,5.51c0,3.04,2.47,5.51,5.51,5.51s5.51-2.47,5.51-5.51
			C19.93,4.18,17.47,1.71,14.43,1.71z M11.76,9.42c-1.22,0-2.21-0.99-2.21-2.21s0.99-2.21,2.21-2.21S13.96,6,13.96,7.22
			S12.97,9.42,11.76,9.42z"/>
	</g>
</g>
</svg>
