<?xml version="1.0" encoding="utf-8"?>
<!-- Generator: Adobe Illustrator 24.0.1, SVG Export Plug-In . SVG Version: 6.00 Build 0)  -->
<svg version="1.1" id="Light_Theme_Icons" xmlns="http://www.w3.org/2000/svg" xmlns:xlink="http://www.w3.org/1999/xlink" x="0px"
	 y="0px" viewBox="0 0 18.93 16.97" style="enable-background:new 0 0 18.93 16.97;" xml:space="preserve">
<style type="text/css">
	.st0{fill:#5B5B5B;}
	.st1{display:none;fill:#5B5B5B;}
	.st2{fill:#4F4F4F;}
	.st3{fill:none;stroke:#4F4F4F;stroke-miterlimit:10;}
	.st4{fill:none;}
	.st5{fill:#2D2D2D;}
	.st6{fill:#EDEDED;}
	.st7{fill:#C4C4C4;}
</style>
<g id="Import_1_">
	<g>
		<g>
			<path class="st0" d="M9.6,9.53c-0.29,0-0.49,0-0.69,0c-2.55,0-5.09,0-7.64,0C0.43,9.53-0.11,9,0.02,8.31
				c0.11-0.57,0.53-0.88,1.26-0.88c2.45,0,4.9,0,7.35,0c0.26,0,0.53,0,0.88,0c-0.1-0.17-0.16-0.29-0.24-0.4
				C8.75,6.32,8.2,5.62,7.68,4.9C7.3,4.36,7.38,3.76,7.87,3.4c0.45-0.34,1.08-0.28,1.46,0.21c1.08,1.41,2.14,2.83,3.19,4.25
				c0.28,0.39,0.29,0.83,0.02,1.22c-0.99,1.43-1.98,2.84-3,4.25c-0.36,0.5-0.98,0.58-1.45,0.25c-0.46-0.33-0.59-0.93-0.25-1.46
				c0.46-0.71,0.96-1.4,1.45-2.09C9.37,9.9,9.46,9.76,9.6,9.53z"/>
			<path class="st0" d="M16.82,14.87c0-4.29,0-8.49,0-12.78c-0.34,0-9.68,0.01-10.01,0C6.15,2.07,5.71,1.65,5.7,1.05
				c0-0.59,0.44-1.02,1.1-1.04C7.49,0,17.17-0.01,17.85,0.01c0.69,0.01,1.08,0.41,1.08,1.11c0,4.91,0,9.81,0,14.72
				c0,0.73-0.4,1.11-1.13,1.12c-0.66,0.01-10.32,0.01-10.98-0.01c-0.67-0.02-1.11-0.44-1.11-1.03c0-0.6,0.44-1.02,1.1-1.04
				C7.12,14.87,16.44,14.87,16.82,14.87z"/>
		</g>
	</g>
</g>
</svg>
