<?xml version="1.0" encoding="utf-8"?>
<!-- Generator: Adobe Illustrator 24.0.1, SVG Export Plug-In . SVG Version: 6.00 Build 0)  -->
<svg version="1.1" id="Light_Theme_Icons" xmlns="http://www.w3.org/2000/svg" xmlns:xlink="http://www.w3.org/1999/xlink" x="0px"
	 y="0px" viewBox="0 0 25.95 25.57" style="enable-background:new 0 0 25.95 25.57;" xml:space="preserve">
<style type="text/css">
	.st0{fill:#5B5B5B;}
	.st1{display:none;fill:#5B5B5B;}
	.st2{fill:#4F4F4F;}
	.st3{fill:none;stroke:#4F4F4F;stroke-miterlimit:10;}
	.st4{fill:none;}
	.st5{fill:#2D2D2D;}
	.st6{fill:#EDEDED;}
	.st7{fill:#C4C4C4;}
</style>
<g id="Show_Lines_1_">
	<path class="st0" d="M23.36,13.91c-0.58-0.13-1.17-0.09-1.72,0.09l-4.87-6.84h4.11c1.63,0,2.95-1.33,2.95-2.95V2.95
		c0-1.63-1.33-2.95-2.95-2.95H5.08C3.45,0,2.12,1.33,2.12,2.95v1.26c0,1.63,1.33,2.95,2.95,2.95h4.11l-4.87,6.84
		c-0.55-0.18-1.14-0.22-1.72-0.09c-1.78,0.4-2.91,2.17-2.52,3.95c0.19,0.86,0.71,1.6,1.45,2.08c0.54,0.34,1.15,0.52,1.78,0.52
		c0.24,0,0.48-0.03,0.72-0.08c1.78-0.4,2.91-2.17,2.52-3.95c-0.1-0.47-0.31-0.9-0.59-1.27l5.69-7.99h0.34v11.95
		c-1.34,0.43-2.31,1.67-2.31,3.14c0,1.83,1.49,3.31,3.31,3.31s3.31-1.49,3.31-3.31c0-1.48-0.98-2.71-2.31-3.14V7.17h0.34L20,15.16
		c-0.28,0.37-0.49,0.8-0.59,1.27c-0.39,1.78,0.74,3.55,2.52,3.95c0.24,0.05,0.48,0.08,0.71,0.08c1.52,0,2.89-1.05,3.23-2.6v0
		C26.27,16.08,25.14,14.31,23.36,13.91z M3.81,19.41c-0.61,0.13-1.22,0.02-1.74-0.31c-0.52-0.33-0.88-0.85-1.01-1.45v0
		c-0.28-1.24,0.51-2.48,1.76-2.76c0.17-0.04,0.34-0.06,0.5-0.06c0.44,0,0.86,0.12,1.24,0.36c0.52,0.33,0.88,0.85,1.01,1.45
		C5.85,17.89,5.06,19.13,3.81,19.41z M15.29,22.25c0,1.28-1.04,2.31-2.31,2.31s-2.31-1.04-2.31-2.31s1.04-2.31,2.31-2.31
		S15.29,20.98,15.29,22.25z M13.98,6.17h-0.13H12.1h-0.13H9.9H5.08C4,6.17,3.12,5.29,3.12,4.21V2.95C3.12,1.88,4,1,5.08,1h15.8
		c1.08,0,1.95,0.88,1.95,1.95v1.26c0,1.08-0.88,1.95-1.95,1.95h-4.82H13.98z M24.9,17.65c-0.27,1.25-1.51,2.04-2.76,1.76
		c-1.25-0.28-2.03-1.51-1.76-2.76c0.13-0.6,0.49-1.12,1.01-1.45c0.38-0.24,0.8-0.36,1.24-0.36c0.17,0,0.34,0.02,0.5,0.06
		C24.39,15.16,25.18,16.4,24.9,17.65z"/>
</g>
</svg>
